<svg width="25" height="27" viewBox="0 0 25 27" fill="none" xmlns="http://www.w3.org/2000/svg">
<path fill-rule="evenodd" clip-rule="evenodd" d="M12 6C15.3137 6 18 8.68624 18 11.9999C18 13.9131 18 15.8341 18 17C18 20 20 21 20 21L4 21C4 21 6 20 6 17C6 15.8341 6 13.9131 6 12C6 8.68624 8.68629 6 12 6V6Z" stroke="white" stroke-linejoin="round"/>
<path d="M10 21C10 22.1046 10.8954 23 12 23C13.1046 23 14 22.1046 14 21" stroke="white"/>
<ellipse cx="22.0102" cy="2.99999" rx="2.18182" ry="2.18182" fill="#EE815F"/>
</svg>
