<svg width="20" height="20" viewBox="0 0 20 20" fill="none" xmlns="http://www.w3.org/2000/svg">
<path fill-rule="evenodd" clip-rule="evenodd" d="M10.0001 10.8333C10.4603 10.8333 10.8334 10.4602 10.8334 9.99999C10.8334 9.53975 10.4603 9.16666 10.0001 9.16666C9.53984 9.16666 9.16675 9.53975 9.16675 9.99999C9.16675 10.4602 9.53984 10.8333 10.0001 10.8333Z" fill="white" stroke="white"/>
<path fill-rule="evenodd" clip-rule="evenodd" d="M5.00008 10.8333C5.46032 10.8333 5.83341 10.4602 5.83341 9.99999C5.83341 9.53975 5.46032 9.16666 5.00008 9.16666C4.53984 9.16666 4.16675 9.53975 4.16675 9.99999C4.16675 10.4602 4.53984 10.8333 5.00008 10.8333Z" fill="white" stroke="white"/>
<path fill-rule="evenodd" clip-rule="evenodd" d="M15.0001 10.8333C15.4603 10.8333 15.8334 10.4602 15.8334 9.99999C15.8334 9.53975 15.4603 9.16666 15.0001 9.16666C14.5398 9.16666 14.1667 9.53975 14.1667 9.99999C14.1667 10.4602 14.5398 10.8333 15.0001 10.8333Z" fill="white" stroke="white"/>
<rect x="0.5" y="0.5" width="19" height="19" rx="9.5" stroke="white"/>
</svg>
